<svg xmlns="http://www.w3.org/2000/svg" xml:space="preserve" width="98" height="90" style="shape-rendering:geometricPrecision;text-rendering:geometricPrecision;image-rendering:optimizeQuality;fill-rule:evenodd;clip-rule:evenodd" version="1.0" viewBox="0 0 98 89.69"><defs><style>.fil0,.fil2{fill:#088551;fill-rule:nonzero}.fil0{fill:#6c6c6f}</style></defs><g id="Camada_x0020_1"><path id="_3044478004112" d="M86.17 39.39c-.9-3.51-2.29-6.83-4.09-9.88l8.36-8.36L76.86 7.56l-8.37 8.36a38.22 38.22 0 0 0-9.88-4.09V0H39.39v11.83c-3.51.91-6.83 2.29-9.88 4.09l-8.36-8.36L7.56 21.15l8.36 8.36c-1.8 3.05-3.18 6.37-4.09 9.88H0v19.22H19.81c-1-3.03-1.56-6.25-1.56-9.61 0-3.36.56-6.58 1.56-9.61.48-1.46 1.08-2.87 1.76-4.23a30.79 30.79 0 0 1 13.59-13.59c1.36-.68 2.77-1.28 4.23-1.76a30.566 30.566 0 0 1 23.45 1.76 30.79 30.79 0 0 1 13.59 13.59c.68 1.36 1.28 2.77 1.76 4.23 1 3.03 1.56 6.25 1.56 9.61 0 3.36-.56 6.58-1.56 9.61H98V39.39H86.17z" class="fil0"/><path id="_3044478004928" d="M39.03 25.92h-3.98v10.27l-5.98 2.8V53.7l13.95 4.91V32.46l-3.99 1.86z" style="fill:#424045;fill-rule:nonzero"/><path id="_3044478008000" d="M56.97 29.19v4.9l-11.96-4.9v29.42l23.92-3.27V34.09l-11.96-4.9zm-6.22 11.73h-2.87v-2.35h2.87v2.35zm7.66 0h-2.87v-2.35h2.87v2.35zm7.65 0h-2.87v-2.35h2.87v2.35z" class="fil0"/><g id="_3044478007616"><path d="M40.4 66.78c3.12 0 5.39 1.39 6.88 2.88l-2.75 3.08c-1.11-1.01-2.17-1.66-4.06-1.66-3.39 0-5.83 2.68-5.83 7.12 0 4.54 2.06 7.19 6.23 7.19.89 0 1.8-.24 2.34-.68v-3.79h-3.66v-4.07h8.1v10.17c-1.59 1.38-4.34 2.67-7.42 2.67-5.97 0-10.71-3.89-10.71-11.32 0-7.32 4.88-11.59 10.88-11.59zM52.12 67.19h7.56c4.61 0 8.17 1.25 8.17 5.49 0 1.96-1.16 4.1-3.73 4.78v.13c3.15.58 4.81 2.24 4.81 5.19 0 4.51-3.79 6.51-8.61 6.51h-8.2v-22.1zm7.32 8.91c2.44 0 3.53-1.05 3.53-2.71s-1.16-2.34-3.46-2.34h-2.37v5.05h2.3zm.47 9.32c2.72 0 4.14-1.01 4.14-3.01 0-1.94-1.39-2.78-4.14-2.78h-2.77v5.79h2.77z" class="fil2"/></g></g></svg>